<?xml version="1.0" encoding="utf-8"?>
<!-- Generator: Adobe Illustrator 19.0.0, SVG Export Plug-In . SVG Version: 6.00 Build 0)  -->
<svg version="1.1" xmlns="http://www.w3.org/2000/svg" xmlns:xlink="http://www.w3.org/1999/xlink" x="0px" y="0px"
	 viewBox="0 0 960 560" style="enable-background:new 0 0 960 560;" xml:space="preserve">
<g id="Gradient">
	<linearGradient id="XMLID_723_" gradientUnits="userSpaceOnUse" x1="154.085" y1="904" x2="227.4268" y2="904">
		<stop  offset="0" style="stop-color:#C8FAFA"/>
		<stop  offset="1" style="stop-color:#AADEFF"/>
	</linearGradient>
	<path id="XMLID_400_" style="fill:url(#XMLID_723_);" d="M154.1,957.2v-6.5h73.3v6.5H154.1z M155.7,857.2v-6.5h70.1v6.5H155.7z
		 M166.8,903.9v-6.5h47.8v6.5H166.8z"/>
	<linearGradient id="XMLID_724_" gradientUnits="userSpaceOnUse" x1="238.6124" y1="875.6083" x2="323.2626" y2="960.2584">
		<stop  offset="8.522196e-008" style="stop-color:#C8FAFA"/>
		<stop  offset="1" style="stop-color:#AADEFF"/>
	</linearGradient>
	<path id="XMLID_61_" style="fill:url(#XMLID_724_);" d="M263.5,957.2V850.8h7.1v100h55.7v6.5H263.5z"/>
	<linearGradient id="XMLID_725_" gradientUnits="userSpaceOnUse" x1="384.6084" y1="850.7705" x2="384.6084" y2="957.2295">
		<stop  offset="0" style="stop-color:#C8FAFA"/>
		<stop  offset="1" style="stop-color:#AADEFF"/>
	</linearGradient>
	<path id="XMLID_59_" style="fill:url(#XMLID_725_);" d="M380.9,957.2v-39.1l-36.5-67.4h7.6l18.9,35.2c2.5,4.1,4.8,8.2,6.9,12.4
		c2.1,4.1,4.4,8.4,6.9,12.7h0.6c2.5-4.3,4.9-8.6,7.2-12.8c2.3-4.2,4.5-8.3,6.7-12.4l18.4-35.1h7.3l-36.5,67.4v39.1H380.9z"/>
	<linearGradient id="XMLID_726_" gradientUnits="userSpaceOnUse" x1="520.6624" y1="867.4441" x2="445.1297" y2="942.9767">
		<stop  offset="0" style="stop-color:#C8FAFA"/>
		<stop  offset="1" style="stop-color:#AADEFF"/>
	</linearGradient>
	<path id="XMLID_57_" style="fill:url(#XMLID_726_);" d="M483,959.2c-8.2,0-15.4-1.5-21.6-4.4c-6.2-3-11.6-6.8-16.1-11.6l4.8-5.2
		c4.1,4.4,8.9,7.9,14.5,10.5c5.6,2.6,11.7,3.9,18.4,3.9c8.6,0,15.4-2,20.4-5.9c5-3.9,7.5-9,7.5-15.3c0-3.3-0.6-6.2-1.7-8.5
		c-1.1-2.3-2.6-4.3-4.5-6c-1.9-1.7-4.1-3.1-6.6-4.4c-2.5-1.2-5.2-2.4-8-3.6l-16-7.3c-2.5-1-5.1-2.2-7.8-3.6
		c-2.7-1.4-5.3-3.2-7.5-5.3c-2.3-2.1-4.1-4.6-5.7-7.4c-1.5-2.9-2.3-6.3-2.3-10.3c0-3.9,0.8-7.4,2.4-10.6c1.6-3.2,3.9-5.9,6.8-8.2
		c2.9-2.3,6.4-4.1,10.3-5.4c4-1.3,8.3-1.9,12.9-1.9c6.8,0,12.8,1.3,18.2,3.8c5.3,2.5,9.7,5.5,13.2,9l-4.4,4.8
		c-3.3-3.2-7.2-5.8-11.7-7.8c-4.5-2-9.6-3-15.4-3c-7.4,0-13.4,1.7-18,5.2c-4.6,3.4-6.9,8.1-6.9,13.9c0,3.1,0.6,5.8,1.9,7.9
		c1.3,2.2,2.9,4,4.9,5.6c2,1.6,4.1,2.9,6.5,4c2.3,1.1,4.5,2.1,6.7,3l16,7.1c3.2,1.3,6.3,2.7,9.2,4.4c2.9,1.6,5.5,3.5,7.7,5.7
		c2.2,2.2,4,4.7,5.3,7.7c1.3,3,1.9,6.5,1.9,10.6c0,4.1-0.8,7.9-2.5,11.4c-1.7,3.5-4.1,6.5-7.2,9c-3.1,2.5-6.9,4.5-11.2,6
		S488.4,959.2,483,959.2z"/>
	<linearGradient id="XMLID_727_" gradientUnits="userSpaceOnUse" x1="593.2969" y1="889.0836" x2="541.625" y2="918.9164">
		<stop  offset="0" style="stop-color:#C8FAFA"/>
		<stop  offset="1" style="stop-color:#AADEFF"/>
	</linearGradient>
	<path id="XMLID_55_" style="fill:url(#XMLID_727_);" d="M563.7,957.2V850.8h7.4v106.5H563.7z"/>
	<linearGradient id="XMLID_728_" gradientUnits="userSpaceOnUse" x1="698.5811" y1="904" x2="616.1924" y2="904">
		<stop  offset="0" style="stop-color:#C8FAFA"/>
		<stop  offset="1" style="stop-color:#AADEFF"/>
	</linearGradient>
	<path id="XMLID_53_" style="fill:url(#XMLID_728_);" d="M616.2,957.2l37.5-106.5h7.4l37.5,106.5h-7.9l-33.3-100.5l0,0l-33.8,100.5
		H616.2z"/>
	<linearGradient id="XMLID_729_" gradientUnits="userSpaceOnUse" x1="772.3135" y1="850.7705" x2="772.3135" y2="957.2295">
		<stop  offset="0" style="stop-color:#C8FAFA"/>
		<stop  offset="1" style="stop-color:#AADEFF"/>
	</linearGradient>
	<path id="XMLID_51_" style="fill:url(#XMLID_729_);" d="M738.7,957.2V850.8h7.9l41.5,75.3l11.3,21h0.3c-0.1-5.2-0.3-10.3-0.6-15.4
		c-0.3-5.1-0.4-10.3-0.4-15.4v-65.4h7.1v106.5H798l-41.5-75.3l-11.3-21h-0.3c0.1,5.2,0.3,10.2,0.6,15.1c0.3,4.9,0.4,9.9,0.4,15.1
		v66.1H738.7z"/>
</g>
<g id="Outline">
	<path id="XMLID_221_" style="fill:none;stroke:#000000;stroke-miterlimit:10;" d="M156,330.4V324h73.3v6.5H156z M157.6,230.4V224
		h70.1v6.5H157.6z M168.8,277.1v-6.5h47.8v6.5H168.8z"/>
	<path id="XMLID_219_" style="fill:none;stroke:#000000;stroke-miterlimit:10;" d="M265.4,330.4V224h7.1v100h55.7v6.5H265.4z"/>
	<path id="XMLID_217_" style="fill:none;stroke:#000000;stroke-miterlimit:10;" d="M382.8,330.4v-39.1L346.3,224h7.6l18.9,35.2
		c2.5,4.1,4.8,8.2,6.9,12.4c2.1,4.1,4.4,8.4,6.9,12.7h0.6c2.5-4.3,4.9-8.6,7.2-12.8c2.3-4.2,4.5-8.3,6.7-12.4l18.4-35.1h7.3
		l-36.5,67.4v39.1H382.8z"/>
	<path id="XMLID_215_" style="fill:none;stroke:#000000;stroke-miterlimit:10;" d="M484.9,332.4c-8.2,0-15.4-1.5-21.6-4.4
		c-6.2-3-11.6-6.8-16.1-11.6l4.8-5.2c4.1,4.4,8.9,7.9,14.5,10.5c5.6,2.6,11.7,3.9,18.4,3.9c8.6,0,15.4-2,20.4-5.9
		c5-3.9,7.5-9,7.5-15.3c0-3.3-0.6-6.2-1.7-8.5c-1.1-2.3-2.6-4.3-4.5-6c-1.9-1.7-4.1-3.1-6.6-4.4c-2.5-1.2-5.2-2.4-8-3.6l-16-7.3
		c-2.5-1-5.1-2.2-7.8-3.6c-2.7-1.4-5.3-3.2-7.5-5.3c-2.3-2.1-4.1-4.6-5.7-7.4c-1.5-2.9-2.3-6.3-2.3-10.3c0-3.9,0.8-7.4,2.4-10.6
		c1.6-3.2,3.9-5.9,6.8-8.2c2.9-2.3,6.4-4.1,10.3-5.4c4-1.3,8.3-1.9,12.9-1.9c6.8,0,12.8,1.3,18.2,3.8c5.3,2.5,9.7,5.5,13.2,9
		l-4.4,4.8c-3.3-3.2-7.2-5.8-11.7-7.8c-4.5-2-9.6-3-15.4-3c-7.4,0-13.4,1.7-18,5.2c-4.6,3.4-6.9,8.1-6.9,13.9c0,3.1,0.6,5.8,1.9,7.9
		c1.3,2.2,2.9,4,4.9,5.6c2,1.6,4.1,2.9,6.5,4c2.3,1.1,4.5,2.1,6.7,3l16,7.1c3.2,1.3,6.3,2.7,9.2,4.4c2.9,1.6,5.5,3.5,7.7,5.7
		c2.2,2.2,4,4.7,5.3,7.7c1.3,3,1.9,6.5,1.9,10.6c0,4.1-0.8,7.9-2.5,11.4c-1.7,3.5-4.1,6.5-7.2,9c-3.1,2.5-6.9,4.5-11.2,6
		S490.3,332.4,484.9,332.4z"/>
	<path id="XMLID_213_" style="fill:none;stroke:#000000;stroke-miterlimit:10;" d="M565.7,330.4V224h7.4v106.5H565.7z"/>
	<path id="XMLID_211_" style="fill:none;stroke:#000000;stroke-miterlimit:10;" d="M618.1,330.4L655.6,224h7.4l37.5,106.5h-7.9
		l-33.3-100.5l0,0l-33.8,100.5H618.1z"/>
	<path id="XMLID_209_" style="fill:none;stroke:#000000;stroke-miterlimit:10;" d="M740.7,330.4V224h7.9l41.5,75.3l11.3,21h0.3
		c-0.1-5.2-0.3-10.3-0.6-15.4c-0.3-5.1-0.4-10.3-0.4-15.4V224h7.1v106.5h-7.9l-41.5-75.3l-11.3-21h-0.3c0.1,5.2,0.3,10.2,0.6,15.1
		c0.3,4.9,0.4,9.9,0.4,15.1v66.1H740.7z"/>
</g>
<g id="Dark">
	<linearGradient id="XMLID_730_" gradientUnits="userSpaceOnUse" x1="-1041" y1="904" x2="-81" y2="904">
		<stop  offset="0" style="stop-color:#C8FAFA"/>
		<stop  offset="1" style="stop-color:#AADEFF"/>
	</linearGradient>
	<rect id="XMLID_63_" x="-1041" y="624" style="fill:url(#XMLID_730_);" width="960" height="560"/>
	<path id="XMLID_97_" style="fill:#FFFFFF;" d="M-886.9,957.2v-6.5h73.3v6.5H-886.9z M-885.3,857.2v-6.5h70.1v6.5H-885.3z
		 M-874.2,903.9v-6.5h47.8v6.5H-874.2z"/>
	<path id="XMLID_95_" style="fill:#FFFFFF;" d="M-777.5,957.2V850.8h7.1v100h55.7v6.5H-777.5z"/>
	<path id="XMLID_93_" style="fill:#FFFFFF;" d="M-660.1,957.2v-39.1l-36.5-67.4h7.6l18.9,35.2c2.5,4.1,4.8,8.2,6.9,12.4
		c2.1,4.1,4.4,8.4,6.9,12.7h0.6c2.5-4.3,4.9-8.6,7.2-12.8c2.3-4.2,4.5-8.3,6.7-12.4l18.4-35.1h7.3l-36.5,67.4v39.1H-660.1z"/>
	<path id="XMLID_91_" style="fill:#FFFFFF;" d="M-558,959.2c-8.2,0-15.4-1.5-21.6-4.4c-6.2-3-11.6-6.8-16.1-11.6l4.8-5.2
		c4.1,4.4,8.9,7.9,14.5,10.5c5.6,2.6,11.7,3.9,18.4,3.9c8.6,0,15.4-2,20.4-5.9c5-3.9,7.5-9,7.5-15.3c0-3.3-0.6-6.2-1.7-8.5
		c-1.1-2.3-2.6-4.3-4.5-6c-1.9-1.7-4.1-3.1-6.6-4.4c-2.5-1.2-5.2-2.4-8-3.6l-16-7.3c-2.5-1-5.1-2.2-7.8-3.6
		c-2.7-1.4-5.3-3.2-7.5-5.3c-2.3-2.1-4.1-4.6-5.7-7.4c-1.5-2.9-2.3-6.3-2.3-10.3c0-3.9,0.8-7.4,2.4-10.6c1.6-3.2,3.9-5.9,6.8-8.2
		c2.9-2.3,6.4-4.1,10.3-5.4c4-1.3,8.3-1.9,12.9-1.9c6.8,0,12.8,1.3,18.2,3.8c5.3,2.5,9.7,5.5,13.2,9l-4.4,4.8
		c-3.3-3.2-7.2-5.8-11.7-7.8c-4.5-2-9.6-3-15.4-3c-7.4,0-13.4,1.7-18,5.2c-4.6,3.4-6.9,8.1-6.9,13.9c0,3.1,0.6,5.8,1.9,7.9
		c1.3,2.2,2.9,4,4.9,5.6c2,1.6,4.1,2.9,6.5,4c2.3,1.1,4.5,2.1,6.7,3l16,7.1c3.2,1.3,6.3,2.7,9.2,4.4c2.9,1.6,5.5,3.5,7.7,5.7
		c2.2,2.2,4,4.7,5.3,7.7c1.3,3,1.9,6.5,1.9,10.6c0,4.1-0.8,7.9-2.5,11.4c-1.7,3.5-4.1,6.5-7.2,9c-3.1,2.5-6.9,4.5-11.2,6
		S-552.6,959.2-558,959.2z"/>
	<path id="XMLID_89_" style="fill:#FFFFFF;" d="M-477.3,957.2V850.8h7.4v106.5H-477.3z"/>
	<path id="XMLID_36_" style="fill:#FFFFFF;" d="M-424.8,957.2l37.5-106.5h7.4l37.5,106.5h-7.9l-33.3-100.5l0,0l-33.8,100.5H-424.8z"
		/>
	<path id="XMLID_34_" style="fill:#FFFFFF;" d="M-302.3,957.2V850.8h7.9l41.5,75.3l11.3,21h0.3c-0.1-5.2-0.3-10.3-0.6-15.4
		c-0.3-5.1-0.4-10.3-0.4-15.4v-65.4h7.1v106.5h-7.9l-41.5-75.3l-11.3-21h-0.3c0.1,5.2,0.3,10.2,0.6,15.1c0.3,4.9,0.4,9.9,0.4,15.1
		v66.1H-302.3z"/>
</g>
<g id="Light">
	<path id="XMLID_14_" d="M-886.9,333.7v-6.5h73.3v6.5H-886.9z M-885.3,233.7v-6.5h70.1v6.5H-885.3z M-874.2,280.4V274h47.8v6.5
		H-874.2z"/>
	<path id="XMLID_12_" d="M-777.5,333.7V227.3h7.1v100h55.7v6.5H-777.5z"/>
	<path id="XMLID_10_" d="M-660.1,333.7v-39.1l-36.5-67.4h7.6l18.9,35.2c2.5,4.1,4.8,8.2,6.9,12.4c2.1,4.1,4.4,8.4,6.9,12.7h0.6
		c2.5-4.3,4.9-8.6,7.2-12.8c2.3-4.2,4.5-8.3,6.7-12.4l18.4-35.1h7.3l-36.5,67.4v39.1H-660.1z"/>
	<path id="XMLID_8_" d="M-558,335.7c-8.2,0-15.4-1.5-21.6-4.4c-6.2-3-11.6-6.8-16.1-11.6l4.8-5.2c4.1,4.4,8.9,7.9,14.5,10.5
		c5.6,2.6,11.7,3.9,18.4,3.9c8.6,0,15.4-2,20.4-5.9c5-3.9,7.5-9,7.5-15.3c0-3.3-0.6-6.2-1.7-8.5c-1.1-2.3-2.6-4.3-4.5-6
		c-1.9-1.7-4.1-3.1-6.6-4.4c-2.5-1.2-5.2-2.4-8-3.6l-16-7.3c-2.5-1-5.1-2.2-7.8-3.6c-2.7-1.4-5.3-3.2-7.5-5.3
		c-2.3-2.1-4.1-4.6-5.7-7.4c-1.5-2.9-2.3-6.3-2.3-10.3c0-3.9,0.8-7.4,2.4-10.6c1.6-3.2,3.9-5.9,6.8-8.2c2.9-2.3,6.4-4.1,10.3-5.4
		c4-1.3,8.3-1.9,12.9-1.9c6.8,0,12.8,1.3,18.2,3.8c5.3,2.5,9.7,5.5,13.2,9l-4.4,4.8c-3.3-3.2-7.2-5.8-11.7-7.8c-4.5-2-9.6-3-15.4-3
		c-7.4,0-13.4,1.7-18,5.2c-4.6,3.4-6.9,8.1-6.9,13.9c0,3.1,0.6,5.8,1.9,7.9c1.3,2.2,2.9,4,4.9,5.6c2,1.6,4.1,2.9,6.5,4
		c2.3,1.1,4.5,2.1,6.7,3l16,7.1c3.2,1.3,6.3,2.7,9.2,4.4c2.9,1.6,5.5,3.5,7.7,5.7c2.2,2.2,4,4.7,5.3,7.7c1.3,3,1.9,6.5,1.9,10.6
		c0,4.1-0.8,7.9-2.5,11.4c-1.7,3.5-4.1,6.5-7.2,9c-3.1,2.5-6.9,4.5-11.2,6S-552.6,335.7-558,335.7z"/>
	<path id="XMLID_6_" d="M-477.3,333.7V227.3h7.4v106.5H-477.3z"/>
	<path id="XMLID_4_" d="M-424.8,333.7l37.5-106.5h7.4l37.5,106.5h-7.9l-33.3-100.5l0,0l-33.8,100.5H-424.8z"/>
	<path id="XMLID_1_" d="M-302.3,333.7V227.3h7.9l41.5,75.3l11.3,21h0.3c-0.1-5.2-0.3-10.3-0.6-15.4c-0.3-5.1-0.4-10.3-0.4-15.4
		v-65.4h7.1v106.5h-7.9l-41.5-75.3l-11.3-21h-0.3c0.1,5.2,0.3,10.2,0.6,15.1c0.3,4.9,0.4,9.9,0.4,15.1v66.1H-302.3z"/>
</g>
<g id="Guides">
</g>
</svg>
