<?xml version="1.0" encoding="utf-8"?>
<!-- Generator: Adobe Illustrator 19.0.0, SVG Export Plug-In . SVG Version: 6.00 Build 0)  -->
<svg version="1.1" id="Layer_1" xmlns="http://www.w3.org/2000/svg" xmlns:xlink="http://www.w3.org/1999/xlink" x="0px" y="0px"
	 viewBox="380 -180 960 560" style="enable-background:new 380 -180 960 560;" xml:space="preserve">
<g id="Light">
	<path id="XMLID_14_" d="M513.7,146.2v-5.6H587v5.6H513.7z M515.3,59.4v-5.6h70.1v5.6H515.3z M526.4,100v-5.6h47.8v5.6L526.4,100
		L526.4,100z"/>
	<path id="XMLID_12_" d="M623.1,146.2V53.9h7.1v86.8h55.7v5.6L623.1,146.2L623.1,146.2z"/>
	<path id="XMLID_10_" d="M740.5,146.2v-33.9L704,53.8h7.6l18.9,30.6c2.5,3.6,4.8,7.1,6.9,10.8c2.1,3.6,4.4,7.3,6.9,11h0.6
		c2.5-3.7,4.9-7.5,7.2-11.1c2.3-3.6,4.5-7.2,6.7-10.8l18.4-30.5h7.3L748,112.3v33.9H740.5L740.5,146.2z"/>
	<path id="XMLID_8_" d="M842.6,148c-8.2,0-15.4-1.3-21.6-3.8c-6.2-2.6-11.6-5.9-16.1-10.1l4.8-4.5c4.1,3.8,8.9,6.9,14.5,9.1
		s11.7,3.4,18.4,3.4c8.6,0,15.4-1.7,20.4-5.1s7.5-7.8,7.5-13.3c0-2.9-0.6-5.4-1.7-7.4c-1.1-2-2.6-3.7-4.5-5.2s-4.1-2.7-6.6-3.8
		c-2.5-1-5.2-2.1-8-3.1l-16-6.3c-2.5-0.9-5.1-1.9-7.8-3.1s-5.3-2.8-7.5-4.6c-2.3-1.8-4.1-4-5.7-6.4c-1.5-2.5-2.3-5.5-2.3-8.9
		c0-3.4,0.8-6.4,2.4-9.2c1.6-2.8,3.9-5.1,6.8-7.1c2.9-2,6.4-3.6,10.3-4.7c4-1.1,8.3-1.6,12.9-1.6c6.8,0,12.8,1.1,18.2,3.3
		c5.3,2.2,9.7,4.8,13.2,7.8l-4.4,4.2c-3.3-2.8-7.2-5-11.7-6.8s-9.6-2.6-15.4-2.6c-7.4,0-13.4,1.5-18,4.5c-4.6,3-6.9,7-6.9,12.1
		c0,2.7,0.6,5,1.9,6.9c1.3,1.9,2.9,3.5,4.9,4.9s4.1,2.5,6.5,3.5c2.3,1,4.5,1.8,6.7,2.6l16,6.2c3.2,1.1,6.3,2.3,9.2,3.8
		c2.9,1.4,5.5,3,7.7,4.9c2.2,1.9,4,4.1,5.3,6.7s1.9,5.6,1.9,9.2c0,3.6-0.8,6.9-2.5,9.9s-4.1,5.6-7.2,7.8c-3.1,2.2-6.9,3.9-11.2,5.2
		S848,148,842.6,148z"/>
	<path id="XMLID_6_" d="M923.3,146.2V53.9h7.4v92.4L923.3,146.2L923.3,146.2z"/>
	<path id="XMLID_4_" d="M975.8,146.2l37.5-92.4h7.4l37.5,92.4h-7.9L1017,59l0,0l-33.8,87.2H975.8z"/>
	<path id="XMLID_1_" d="M1098.3,146.2V53.9h7.9l41.5,65.4l11.3,18.2h0.3c-0.1-4.5-0.3-8.9-0.6-13.4c-0.3-4.4-0.4-8.9-0.4-13.4V54
		h7.1v92.4h-7.9L1116,81l-11.3-18.2h-0.3c0.1,4.5,0.3,8.9,0.6,13.1c0.3,4.3,0.4,8.6,0.4,13.1v57.4h-7.1V146.2z"/>
</g>
<g id="Guides">
</g>
</svg>
