<?xml version="1.0" encoding="utf-8"?>
<!-- Generator: Adobe Illustrator 19.0.0, SVG Export Plug-In . SVG Version: 6.00 Build 0)  -->
<svg version="1.1" id="Layer_1" xmlns="http://www.w3.org/2000/svg" xmlns:xlink="http://www.w3.org/1999/xlink" x="0px" y="0px"
	 viewBox="-471 213 256 250" style="enable-background:new -471 213 256 250;" xml:space="preserve">
<style type="text/css">
	.st0{fill:#2E3477;}
</style>
<g>
	<path class="st0" d="M-343,213c-70.7,0-128,57.3-128,128c0,56.6,36.7,104.5,87.5,121.5c6.4,1.2,8.7-2.8,8.7-6.2
		c0-3.1-0.1-13.1-0.2-23.8c-35.6,7.7-43.1-15.1-43.1-15.1c-5.8-14.8-14.2-18.7-14.2-18.7c-11.6-7.9,0.9-7.8,0.9-7.8
		c12.9,0.9,19.6,13.2,19.6,13.2c11.4,19.6,29.9,13.9,37.2,10.6c1.1-8.3,4.5-13.9,8.1-17.1c-28.4-3.2-58.3-14.2-58.3-63.3
		c0-14,5-25.4,13.2-34.4c-1.3-3.2-5.7-16.2,1.2-33.9c0,0,10.7-3.4,35.2,13.1c10.2-2.8,21.2-4.3,32-4.3c10.9,0,21.8,1.5,32.1,4.3
		c24.4-16.6,35.2-13.1,35.2-13.1c7,17.6,2.6,30.7,1.3,33.9c8.2,9,13.2,20.4,13.2,34.4c0,49.2-29.9,60-58.4,63.2
		c4.6,4,8.7,11.8,8.7,23.7c0,17.1-0.1,30.9-0.1,35.1c0,3.4,2.3,7.4,8.8,6.1c50.8-16.9,87.5-64.9,87.5-121.4
		C-215,270.3-272.3,213-343,213z M-423.1,395.3c-0.3,0.6-1.3,0.8-2.2,0.4c-0.9-0.4-1.4-1.3-1.1-1.9c0.3-0.7,1.3-0.8,2.2-0.4
		C-423.3,393.8-422.7,394.7-423.1,395.3z M-416.8,401c-0.6,0.6-1.8,0.3-2.6-0.6c-0.8-0.9-1-2.1-0.4-2.7c0.6-0.6,1.8-0.3,2.6,0.6
		C-416.3,399.2-416.1,400.4-416.8,401z M-412.4,408.1c-0.8,0.5-2.1,0-2.9-1.1c-0.8-1.1-0.8-2.5,0-3.1c0.8-0.5,2.1-0.1,2.9,1.1
		C-411.6,406.2-411.6,407.6-412.4,408.1z M-405.1,416.5c-0.7,0.8-2.2,0.6-3.3-0.5c-1.1-1-1.4-2.5-0.7-3.3c0.7-0.8,2.2-0.6,3.3,0.5
		C-404.7,414.2-404.4,415.7-405.1,416.5z M-395.7,419.3c-0.3,1-1.7,1.5-3.2,1c-1.4-0.4-2.4-1.6-2.1-2.6c0.3-1,1.7-1.5,3.2-1
		C-396.3,417.1-395.4,418.3-395.7,419.3z M-385,420.5c0,1.1-1.2,1.9-2.7,2c-1.5,0-2.8-0.8-2.8-1.9c0-1.1,1.2-1.9,2.7-2
		C-386.2,418.6-385,419.4-385,420.5z M-374.4,420.1c0.2,1-0.9,2.1-2.4,2.4c-1.5,0.3-2.9-0.4-3.1-1.4c-0.2-1.1,0.9-2.1,2.4-2.4
		C-375.9,418.4-374.6,419-374.4,420.1z"/>
</g>
</svg>
