<?xml version="1.0" encoding="utf-8"?>
<!-- Generator: Adobe Illustrator 19.0.0, SVG Export Plug-In . SVG Version: 6.00 Build 0)  -->
<svg version="1.1" id="Layer_1" xmlns="http://www.w3.org/2000/svg" xmlns:xlink="http://www.w3.org/1999/xlink" x="0px" y="0px"
	 viewBox="28 -25 256 250" style="enable-background:new 28 -25 256 250;" xml:space="preserve">
<style type="text/css">
	.st0{fill:url(#SVGID_1_);}
</style>
<g>
	<linearGradient id="SVGID_1_" gradientUnits="userSpaceOnUse" x1="28" y1="99.8404" x2="284" y2="99.8404">
		<stop  offset="0" style="stop-color:#1E1A2F"/>
		<stop  offset="1" style="stop-color:#150E1C"/>
	</linearGradient>
	<path class="st0" d="M156-25C85.3-25,28,32.3,28,103c0,56.6,36.7,104.5,87.5,121.5c6.4,1.2,8.7-2.8,8.7-6.2
		c0-3.1-0.1-13.1-0.2-23.8C88.5,202.2,81,179.4,81,179.4c-5.8-14.8-14.2-18.7-14.2-18.7c-11.6-7.9,0.9-7.8,0.9-7.8
		c12.9,0.9,19.6,13.2,19.6,13.2c11.4,19.6,29.9,13.9,37.2,10.6c1.1-8.3,4.5-13.9,8.1-17.1c-28.4-3.2-58.3-14.2-58.3-63.3
		c0-14,5-25.4,13.2-34.4c-1.3-3.2-5.7-16.2,1.2-33.9c0,0,10.7-3.4,35.2,13.1c10.2-2.8,21.2-4.3,32-4.3c10.9,0,21.8,1.5,32.1,4.3
		c24.4-16.6,35.2-13.1,35.2-13.1c7,17.6,2.6,30.7,1.3,33.9c8.2,9,13.2,20.4,13.2,34.4c0,49.2-29.9,60-58.4,63.2
		c4.6,4,8.7,11.8,8.7,23.7c0,17.1-0.1,30.9-0.1,35.1c0,3.4,2.3,7.4,8.8,6.1C247.4,207.5,284,159.5,284,103C284,32.3,226.7-25,156-25
		z M75.9,157.3c-0.3,0.6-1.3,0.8-2.2,0.4c-0.9-0.4-1.4-1.3-1.1-1.9c0.3-0.7,1.3-0.8,2.2-0.4C75.7,155.8,76.3,156.7,75.9,157.3z
		 M82.2,163c-0.6,0.6-1.8,0.3-2.6-0.6c-0.8-0.9-1-2.1-0.4-2.7c0.6-0.6,1.8-0.3,2.6,0.6C82.7,161.2,82.9,162.4,82.2,163z M86.6,170.1
		c-0.8,0.5-2.1,0-2.9-1.1c-0.8-1.1-0.8-2.5,0-3.1c0.8-0.5,2.1-0.1,2.9,1.1C87.4,168.2,87.4,169.6,86.6,170.1z M93.9,178.5
		c-0.7,0.8-2.2,0.6-3.3-0.5c-1.1-1-1.4-2.5-0.7-3.3c0.7-0.8,2.2-0.6,3.3,0.5C94.3,176.2,94.6,177.7,93.9,178.5z M103.3,181.3
		c-0.3,1-1.7,1.5-3.2,1c-1.4-0.4-2.4-1.6-2.1-2.6c0.3-1,1.7-1.5,3.2-1C102.7,179.1,103.6,180.3,103.3,181.3z M114,182.5
		c0,1.1-1.2,1.9-2.7,2c-1.5,0-2.8-0.8-2.8-1.9c0-1.1,1.2-1.9,2.7-2C112.8,180.6,114,181.4,114,182.5z M124.6,182.1
		c0.2,1-0.9,2.1-2.4,2.4c-1.5,0.3-2.9-0.4-3.1-1.4c-0.2-1.1,0.9-2.1,2.4-2.4C123.1,180.4,124.4,181,124.6,182.1z"/>
</g>
</svg>
