<?xml version="1.0" encoding="utf-8"?>
<!-- Generator: Adobe Illustrator 19.0.0, SVG Export Plug-In . SVG Version: 6.00 Build 0)  -->
<svg version="1.1" id="Layer_1" xmlns="http://www.w3.org/2000/svg" xmlns:xlink="http://www.w3.org/1999/xlink" x="0px" y="0px"
	 viewBox="-479 218 240 240" style="enable-background:new -479 218 240 240;" xml:space="preserve">
<style type="text/css">
	.st0{fill:#2E3477;}
	.st1{fill:#C8DAEA;}
	.st2{fill:#4E5796;}
	.st3{fill:url(#SVGID_1_);}
</style>
<circle class="st0" cx="-359" cy="338" r="120"/>
<path class="st1" d="M-381,393c-3.9,0-3.2-1.5-4.6-5.2l-11.4-37.6l88-52.2"/>
<path class="st2" d="M-381,393c3,0,4.3-1.4,6-3l16-15.6l-20-12"/>
<linearGradient id="SVGID_1_" gradientUnits="userSpaceOnUse" x1="-953.7199" y1="673.5539" x2="-953.5289" y2="673.1888" gradientTransform="matrix(130.4927 0 0 -109.4498 124102.9297 74061.2734)">
	<stop  offset="0" style="stop-color:#EFF7FC"/>
	<stop  offset="1" style="stop-color:#FFFFFF"/>
</linearGradient>
<path class="st3" d="M-379,362.4l48.4,35.7c5.5,3,9.5,1.5,10.9-5.1l19.7-92.8c2-8.1-3.1-11.7-8.4-9.3L-424,335.5
	c-7.9,3.2-7.8,7.6-1.4,9.5l29.7,9.3l68.7-43.3c3.2-2,6.2-0.9,3.8,1.3"/>
</svg>
